<svg xmlns="http://www.w3.org/2000/svg" fill="none" role="img" viewBox="0 0 24 24" width="24" height="24" data-icon="SharePlaneStandard" aria-hidden="true">
  <path fill="#FFFFFF" d="M23.7604 2.35053C24.0018 2.63314 24.0665 3.02631 23.9285 3.37139L15.9285 23.3714C15.7766 23.751 15.4089 24 15 24C14.5911 24 14.2234 23.751 14.0716 23.3714L10.2128 13.7244L0.552819 8.89443C0.174999 8.70552 -0.0433699 8.29958 0.00723437 7.8802C0.0578386 7.46083 0.3665 7.11848 0.778412 7.02487L22.7784 2.02487C23.1408 1.9425 23.519 2.06792 23.7604 2.35053ZM12.1983 13.3031L15 20.3074L20.6035 6.29885L12.1983 13.3031ZM19.1601 4.8982L3.94739 8.35565L10.8623 11.8131L19.1601 4.8982Z" clip-rule="evenodd" fill-rule="evenodd"></path>
</svg>